<svg height="496pt" viewBox="0 0 496 496" width="496pt" xmlns="http://www.w3.org/2000/svg"><path d="m496 16v-16h-496v16h240v64.808594c-15.648438 3.191406-28 15.542968-31.191406 31.191406h-8.808594c-4.414062 0-8 3.585938-8 8v24h-8c-4.414062 0-8 3.585938-8 8v24h-16v16h16v16h-16v16h16v3.3125c-44.535156 25.734375-72 73.070312-72 124.6875 0 79.398438 64.601562 144 144 144s144-64.601562 144-144c0-51.617188-27.464844-98.953125-72-124.6875v-3.3125h16v-16h-16v-16h16v-16h-16v-24c0-4.414062-3.585938-8-8-8h-8v-24c0-4.414062-3.585938-8-8-8h-8.808594c-3.191406-15.648438-15.542968-28-31.191406-31.191406v-64.808594zm-187.769531 223.070312c41.800781 22.34375 67.769531 65.617188 67.769531 112.929688 0 70.574219-57.425781 128-128 128s-128-57.425781-128-128c0-47.3125 25.96875-90.585938 67.769531-112.929688 2.605469-1.390624 4.230469-4.101562 4.230469-7.054687v-8.015625h16v104h-16v16h16v16h16v-16h48v16h16v-16h16v-16h-16v-104h16v8.015625c0 2.953125 1.625 5.664063 4.230469 7.054687zm-36.230469-15.070312v104h-48v-104zm32-16h-112v-16h112zm-112-32v-16h112v16zm16-32v-16h80v16zm62.527344-32h-45.046875c3.3125-9.289062 12.113281-16 22.527343-16 10.417969 0 19.207032 6.710938 22.519532 16zm0 0"/></svg>