<?xml version="1.0" encoding="utf-8"?>
<!-- Generator: Adobe Illustrator 12.0.0, SVG Export Plug-In . SVG Version: 6.00 Build 51448)  -->
<!DOCTYPE svg PUBLIC "-//W3C//DTD SVG 1.0//EN" "http://www.w3.org/TR/2001/REC-SVG-20010904/DTD/svg10.dtd" [
	<!ENTITY ns_svg "http://www.w3.org/2000/svg">
	<!ENTITY ns_xlink "http://www.w3.org/1999/xlink">
]>
<svg  version="1.0" id="Layer_1" xmlns="&ns_svg;" xmlns:xlink="&ns_xlink;" width="86.699" height="451.222"
	 viewBox="0 0 86.699 451.222" overflow="visible" enable-background="new 0 0 86.699 451.222" xml:space="preserve">
<path fill="#CEBB66" d="M21.672,343.68c0.88,0.24,1.76,0.48,2.64,0.72c-0.901,5.713-0.11,14.498-1.92,19.681
	c-1.712,4.901-5.593,8.148-8.16,12.239c-3.962,6.314-7.069,13.72-9.12,21.841c-8.267,32.728,15.277,57.697,48.96,49.68
	c35.503-8.451,34.895-50.729,16.561-76.8c-1.04-2-2.08-4-3.12-6c-0.952-3.006-1.854-20.194-0.72-20.641c0.72,0.4,1.439,0.8,2.16,1.2
	c0.955,6.024,0.032,15.502,2.159,20.64c1.841,2.801,3.681,5.602,5.521,8.4c3.684,6.024,6.477,13.267,8.4,20.88
	c5.912,23.406-4.635,44.538-20.16,51.359c-5.172,2.272-10.646,2.972-17.28,4.08c-4.382,0.732-9.741-0.225-13.2-0.959
	c-22.557-4.791-40.13-21.224-32.64-51.12c2.199-8.779,5.346-16.73,9.6-23.521c2.343-3.74,5.934-6.779,7.68-11.04
	C21.237,358.941,19.194,348.931,21.672,343.68z"/>
<path fill="#CEBB66" d="M37.272,343.439c0.72,0.16,1.44,0.32,2.16,0.48c-4.64,14.159-9.281,28.321-13.92,42.479c4-2,8-4,12-6
	c2.504,1.852,3.858,4.06,5.521,6.721c0.479-0.4,0.959-0.801,1.439-1.2c1.439-1.68,2.88-3.36,4.32-5.04
	c5.316,0.702,8.963,5.04,13.68,6.72c-2.801-10.959-5.602-21.921-8.4-32.88c-0.919-3.276-2.736-7.229-2.4-10.8c0.08,0,0.16,0,0.24,0
	c0.641,0.24,1.28,0.479,1.92,0.72c3.92,15.038,7.84,30.081,11.761,45.12c-0.24,0.24-0.48,0.48-0.72,0.72
	c-5.041-2.56-10.082-5.12-15.121-7.68c-2,2.4-4,4.8-6,7.2c-3.646-1.383-3.869-4.915-6.479-7.2c-4.658,1.512-9.891,7.232-14.88,6.24
	c-0.08-0.08-0.16-0.16-0.24-0.24C27.191,373.682,32.232,358.559,37.272,343.439z"/>
<path fill="#FFFFFF" d="M30.553,298.08c4.159,0,8.32,0,12.48,0c0.771,0.409,0.403,0.911,2.159,0.96
	c2.194,0.061,2.831-0.387,3.841-0.96c3.838,0,7.68,0,11.52,0c0,3.52,0,7.04,0,10.56c-2.561,0-5.121,0-7.68,0
	c5.199,12.079,10.399,24.161,15.6,36.24c-15.438,0-30.882,0-46.32,0c0-0.08,0-0.16,0-0.24c5.52-11.919,11.041-23.841,16.56-35.76
	c0-0.08,0-0.16,0-0.24c-2.72,0-5.44,0-8.16,0C30.553,305.12,30.553,301.6,30.553,298.08z"/>
<path fill="#FFFFFF" d="M43.033,0c2,0,4,0,6,0c0,99.67,0,199.37,0,299.04c-2-0.08-4-0.16-6-0.24
	C43.033,199.21,43.033,99.59,43.033,0z"/>
</svg>
