<?xml version="1.0" encoding="utf-8"?>
<!-- Generator: Adobe Illustrator 12.0.0, SVG Export Plug-In . SVG Version: 6.00 Build 51448)  -->
<!DOCTYPE svg PUBLIC "-//W3C//DTD SVG 1.1 Basic//EN" "http://www.w3.org/Graphics/SVG/1.1/DTD/svg11-basic.dtd" [
	<!ENTITY ns_svg "http://www.w3.org/2000/svg">
	<!ENTITY ns_xlink "http://www.w3.org/1999/xlink">
]>
<svg  version="1.1" baseProfile="basic" id="Layer_1" xmlns="&ns_svg;" xmlns:xlink="&ns_xlink;" width="79.906" height="103.867"
	 viewBox="0 0 79.906 103.867" overflow="visible" enable-background="new 0 0 79.906 103.867" xml:space="preserve">
<path fill-rule="evenodd" clip-rule="evenodd" fill="none" d="M20.784,0c3.999,0,8.001,0,12,0c0,0.079,0,0.159,0,0.239
	c-4.8,14.398-9.601,28.802-14.399,43.201c0.239,0.159,0.479,0.319,0.719,0.479c0.48,0.239,0.961,0.479,1.441,0.72
	c2.5-1.488,11.386-6.895,13.68-6.72c1.037,3.071,3.297,5.455,5.76,7.2c0.56-0.48,1.12-0.961,1.68-1.44c1.6-1.999,3.2-4,4.801-6
	c5.039,2.64,10.08,5.28,15.119,7.92c0.24-0.399,0.48-0.8,0.721-1.2C58.385,29.601,54.464,14.798,50.545,0c3.759,0,7.52,0,11.279,0
	c1.124,5.607,0.297,15.085,2.16,20.399c1.497,4.271,4.779,7.576,6.96,11.28c3.173,5.389,5.557,12.04,7.2,18.72
	C84.756,77.28,72.041,96.495,51.984,102c-3.534,0.97-9.221,2.378-13.92,1.68c-6.772-1.007-12.752-1.339-18-3.601
	c-12.902-5.559-23.17-21.74-19.2-42.239c1.2-4.64,2.399-9.28,3.601-13.92c2.125-5.44,4.958-10.839,8.159-15.36
	c2.405-3.396,5.448-6.201,6.72-10.8C20.732,12.74,19.623,5.027,20.784,0z"/>
<path fill-rule="evenodd" clip-rule="evenodd" fill="none" d="M35.664,0c4.08,0,8.16,0,12.24,0c3.6,14.079,7.2,28.161,10.8,42.239
	c-0.08,0-0.159,0-0.239,0c-4.312-2.131-8.341-5.716-13.44-6.719c-1.76,2.159-3.521,4.319-5.28,6.479c-0.16-0.08-0.32-0.16-0.48-0.24
	c-0.807-2.528-2.908-6.124-6-6.479c-3.68,1.92-7.359,3.84-11.039,5.76C26.703,27.361,31.185,13.679,35.664,0z"/>
</svg>
