<?xml version="1.0" encoding="utf-8"?>
<!-- Generator: Adobe Illustrator 12.0.0, SVG Export Plug-In . SVG Version: 6.00 Build 51448)  -->
<!DOCTYPE svg PUBLIC "-//W3C//DTD SVG 1.1//EN" "http://www.w3.org/Graphics/SVG/1.1/DTD/svg11.dtd" [
	<!ENTITY ns_svg "http://www.w3.org/2000/svg">
	<!ENTITY ns_xlink "http://www.w3.org/1999/xlink">
]>
<svg  version="1.1" id="Layer_1" xmlns="&ns_svg;" xmlns:xlink="&ns_xlink;" width="511.92" height="511.92"
	 viewBox="0 0 511.92 511.92" overflow="visible" enable-background="new 0 0 511.92 511.92" xml:space="preserve">
<path fill-rule="evenodd" clip-rule="evenodd" fill="#CEBB66" d="M232.32,343.68c0.88,0.24,1.76,0.48,2.64,0.72
	c-0.901,5.713-0.11,14.498-1.92,19.68c-1.712,4.902-5.593,8.149-8.16,12.24c-3.962,6.314-7.069,13.719-9.12,21.84
	c-8.267,32.728,15.277,57.698,48.96,49.68c35.503-8.451,34.894-50.728,16.56-76.8c-1.04-2-2.08-4-3.12-6
	c-0.952-3.006-1.855-20.194-0.72-20.64c0.72,0.4,1.44,0.8,2.16,1.2c0.956,6.024,0.033,15.502,2.16,20.64
	c1.84,2.8,3.681,5.601,5.52,8.4c3.684,6.024,6.477,13.267,8.4,20.88c5.913,23.406-4.634,44.538-20.16,51.36
	c-5.172,2.272-10.645,2.971-17.28,4.08c-4.381,0.732-9.741-0.225-13.2-0.96c-22.557-4.791-40.13-21.223-32.64-51.12
	c2.199-8.779,5.346-16.73,9.6-23.52c2.343-3.741,5.934-6.78,7.68-11.04C231.885,358.942,229.842,348.931,232.32,343.68z"/>
<path fill-rule="evenodd" clip-rule="evenodd" fill="#CEBB66" d="M247.92,343.44c0.72,0.16,1.44,0.32,2.16,0.48
	c-4.64,14.159-9.281,28.321-13.92,42.48c4-2,8-4,12-6c2.504,1.851,3.858,4.059,5.52,6.72c0.48-0.4,0.96-0.8,1.44-1.2
	c1.44-1.68,2.88-3.36,4.32-5.04c5.317,0.702,8.964,5.04,13.68,6.72c-2.8-10.959-5.601-21.921-8.4-32.88
	c-0.919-3.276-2.736-7.229-2.4-10.8c0.08,0,0.16,0,0.24,0c0.64,0.24,1.28,0.48,1.92,0.72c3.919,15.038,7.84,30.081,11.76,45.12
	c-0.24,0.24-0.48,0.48-0.72,0.72c-5.04-2.56-10.081-5.12-15.12-7.68c-2,2.4-4,4.8-6,7.2c-3.647-1.383-3.87-4.915-6.48-7.2
	c-4.658,1.512-9.891,7.232-14.88,6.24c-0.08-0.08-0.16-0.16-0.24-0.24C237.839,373.682,242.88,358.559,247.92,343.44z"/>
<path fill-rule="evenodd" clip-rule="evenodd" fill="#FFFFFF" d="M241.2,298.08c4.159,0,8.32,0,12.48,0
	c0.772,0.41,0.404,0.911,2.16,0.96c2.194,0.061,2.831-0.386,3.84-0.96c3.839,0,7.68,0,11.52,0c0,3.52,0,7.04,0,10.56
	c-2.56,0-5.121,0-7.68,0c5.2,12.079,10.4,24.161,15.6,36.24c-15.438,0-30.882,0-46.32,0c0-0.08,0-0.16,0-0.24
	c5.52-11.919,11.041-23.841,16.56-35.76c0-0.08,0-0.16,0-0.24c-2.72,0-5.44,0-8.16,0C241.2,305.12,241.2,301.6,241.2,298.08z"/>
<path fill-rule="evenodd" clip-rule="evenodd" fill="#FFFFFF" d="M253.68,0c2,0,4,0,6,0c0,99.67,0,199.37,0,299.04
	c-2-0.08-4-0.16-6-0.24C253.68,199.21,253.68,99.59,253.68,0z"/>
</svg>
